<svg width="1128" height="299" viewBox="0 0 1128 299" fill="none" xmlns="http://www.w3.org/2000/svg">
<path d="M744.101 32.1211C771.29 41.7144 796.313 56.3932 819.603 76.6349C831.937 66.7318 845.086 45.6639 845.086 45.6639C838.27 41.1952 832.752 36.908 826.74 33.7595C800.634 20.0911 772.862 12.3763 744.456 7.31307C717.309 2.48154 690.072 0.382523 662.75 5.91186C662.328 5.99838 661.926 6.22454 662.543 5.9817C689.302 14.492 716.929 22.5362 744.101 32.1211Z" fill="white" fill-opacity="0.15"/>
<path d="M882.223 114.056C883.515 123.697 893.399 132.5 900.726 138.359C902.733 109.225 914.824 87.3222 914.824 87.3222C907.545 81.8487 900.304 76.4087 891.953 70.1285C884.919 84.2463 880.194 98.9028 882.223 114.056Z" fill="white" fill-opacity="0.15"/>
<path d="M0 125.5C84.8408 136.344 145.616 101.953 160.512 94.6545C163.164 97.7667 165.59 100.96 167.811 104.212C116.805 130.259 59.7509 140.128 3.84631 132.782C-0.655884 132.19 -0.605713 136.062 3.84631 136.645C61.1716 144.178 120.825 141.351 173.034 114.497C186.532 141.686 189.036 169.45 174.937 199.673C166.787 217.146 155.779 232.372 142.339 245.155C129.712 257.166 116.242 268.113 102.869 279.763C128.54 285.214 154.218 284.276 179.696 278.437C267.493 257.386 343.597 184.754 346.676 182.808C337.487 176.869 331.087 172.732 324.877 168.719C306.416 187.009 286.808 202.556 264.35 213.556C276.83 188.606 283.325 161.738 289.019 135.958C314.192 150.665 339.318 165.344 364.858 180.268C351.019 195.679 335.425 208.605 318.948 220.805C298.394 236.028 276.88 249.702 254.427 261.274C207.589 285.41 155.581 298.687 103.743 293.496C99.2181 293.043 99.26 296.909 103.743 297.359C155.575 302.55 208.18 295.737 255.298 272.467C278.56 260.978 303.03 248.117 324.257 232.639C342.464 219.365 377.2 189.2 377.2 189.2C384.312 193.354 392.77 196.575 392.77 196.575C380.293 215.231 360.657 220.057 342.687 229.293C418.675 239.617 516.768 201.135 563.598 149.331C610.432 201.135 708.525 239.617 784.509 229.293C766.54 220.057 746.901 215.231 734.427 196.575C734.427 196.575 742.887 193.356 749.996 189.2C749.996 189.2 784.73 219.365 802.942 232.639C824.169 248.117 848.637 260.978 871.901 272.467C919.017 295.737 971.622 302.55 1023.46 297.359C1027.94 296.909 1027.98 293.043 1023.46 293.496C971.616 298.687 919.611 285.412 872.772 261.274C850.32 249.702 828.805 236.028 808.248 220.805C791.775 208.605 776.178 195.679 762.339 180.268C787.881 165.344 813.007 150.668 838.181 135.958C843.872 161.738 850.367 188.606 862.847 213.556C840.389 202.559 820.786 187.012 802.32 168.719C796.11 172.732 789.709 176.869 780.521 182.808C783.602 184.754 859.707 257.386 947.503 278.437C972.981 284.276 998.657 285.214 1024.33 279.763C1010.96 268.113 997.491 257.166 984.863 245.155C971.424 232.372 960.415 217.146 952.262 199.673C938.161 169.45 940.668 141.686 954.166 114.497C1006.37 141.351 1066.03 144.178 1123.36 136.645C1127.81 136.059 1127.86 132.19 1123.36 132.782C1067.45 140.128 1010.4 130.259 959.391 104.212C961.61 100.96 964.035 97.7667 966.687 94.6545C981.586 101.953 1042.36 136.344 1127.2 125.5C1084.68 103.19 1040.35 84.4611 998.727 56.4544C1020.49 42.9618 1042.3 34.0244 1066.64 28.096C1031.02 6.7211 999.69 5.26691 999.69 5.26691C943.015 47.9246 904.915 106.232 907.168 182.27C907.444 191.564 909.021 200.812 910.146 211.499C895.222 195.313 885.369 177.212 879.264 156.758C865.339 110.09 875.965 69.2659 905.267 33.6951C914.662 22.2903 925.612 12.4235 937.65 -3.05176e-05C924.364 1.61887 912.731 3.09262 901.089 4.44077C888.794 5.86426 880.119 12.0523 872.761 23.6888C857.957 47.104 841.193 68.7803 823.483 89.6193C776.086 47.0565 717.102 25.3467 657.966 10.8912C653.544 9.80823 651.663 12.1082 656.095 13.1883C714.032 27.3536 768.667 58.6539 815.148 100.385C811.648 104.438 808.084 108.602 808.084 108.602C778.422 141.951 743.272 158.045 700.581 157.702C679.846 129.932 654.301 107.391 628.198 85.8791C613.6 73.8519 598.921 62.5113 582.104 54.4755C579.162 53.0715 576.195 51.7484 573.217 50.4617C576.139 48.7675 579.05 47.1849 581.953 45.6721C588.15 48.4773 594.086 51.5335 599.155 54.7713C634.266 77.4804 664.226 107.089 693.154 138.144C694.206 139.274 695.379 140.271 696.875 141.689C697.55 134.077 697.561 127.468 698.82 121.16C701.193 109.255 708.374 104.976 717.934 111.198C726.109 116.518 747.875 138.13 747.875 138.13C747.875 138.13 759.969 134.767 770.249 127.278C770.249 127.278 762.395 119.1 759.581 116.309C736.163 93.097 712.329 75.6215 684.236 60.0076C657.991 45.4209 630.743 33.8766 601.648 28.2104C589.074 25.7626 576.488 24.4451 563.598 24.7215C550.711 24.4451 538.126 25.7626 525.549 28.2104C496.457 33.8737 469.209 45.4209 442.961 60.0076C414.867 75.6215 391.034 93.097 367.616 116.309C364.802 119.1 356.948 127.278 356.948 127.278C367.23 134.769 379.325 138.13 379.325 138.13C379.325 138.13 401.087 116.518 409.266 111.198C418.823 104.976 426.004 109.258 428.38 121.16C429.636 127.468 429.647 134.077 430.322 141.689C431.818 140.271 432.99 139.274 434.043 138.144C462.971 107.089 492.934 77.4804 528.041 54.7713C533.11 51.5335 539.047 48.4773 545.244 45.6721C548.146 47.1849 551.058 48.7675 553.983 50.4617C551.005 51.7484 548.035 53.0715 545.096 54.4755C528.279 62.5113 513.597 73.8519 498.999 85.8791C472.899 107.388 447.351 129.932 426.618 157.702C383.927 158.048 348.775 141.951 319.116 108.602C319.116 108.602 315.549 104.438 312.049 100.385C358.533 58.6539 413.168 27.3536 471.104 13.1883C475.534 12.1053 473.655 9.80823 469.231 10.8912C410.097 25.3467 351.114 47.0565 303.714 89.6193C286.004 68.7803 269.237 47.104 254.436 23.6888C247.076 12.0523 238.403 5.86426 226.111 4.44077C214.466 3.0954 202.835 1.61887 189.549 -3.05176e-05C201.585 12.4235 212.532 22.2903 221.93 33.6951C251.234 69.2659 261.863 110.09 247.932 156.758C241.831 177.212 231.978 195.313 217.054 211.499C218.178 200.812 219.761 191.564 220.034 182.27C222.287 106.232 184.182 47.9274 127.51 5.26691C127.51 5.26691 96.1785 6.7211 60.5546 28.096C84.8965 34.0244 106.704 42.9618 128.472 56.4544C86.8447 84.4611 42.5237 103.19 0 125.5ZM552.838 42.4008C556.459 40.9159 560.081 39.5231 563.598 38.2364C567.118 39.5231 570.738 40.9159 574.359 42.4008C570.758 43.7126 567.168 45.0636 563.598 46.4732C560.028 45.0664 556.442 43.7126 552.838 42.4008ZM563.598 56.3121C612.017 87.0458 660.198 137.181 676.117 157.515C632.027 151.971 609.148 147.841 576.237 133.134C580.41 126.789 583.787 120.314 586.232 113.757C579.318 117.964 572.491 122.846 565.147 126.457C564.625 126.717 564.118 126.962 563.598 127.211C563.079 126.96 562.574 126.714 562.049 126.457C554.706 122.846 547.884 117.964 540.965 113.757C543.41 120.314 546.787 126.789 550.963 133.134C518.052 147.841 495.172 151.971 451.08 157.515C466.998 137.178 515.185 87.043 563.598 56.3121Z" fill="white" fill-opacity="0.15"/>
<path d="M307.597 76.6349C330.889 56.3932 355.909 41.7116 383.098 32.1211C410.273 22.5362 437.9 14.4948 464.659 5.98724C465.279 6.23007 464.877 6.004 464.453 5.91747C437.135 0.388138 409.894 2.48706 382.749 7.3186C354.341 12.379 326.571 20.0939 300.468 33.7651C294.456 36.9135 288.935 41.2008 282.119 45.6695C282.113 45.6639 295.262 66.7318 307.597 76.6349Z" fill="white" fill-opacity="0.15"/>
<path d="M244.977 114.056C247.006 98.9001 242.283 84.2436 235.249 70.1314C226.898 76.4116 219.661 81.8515 212.381 87.325C212.381 87.325 224.473 109.227 226.477 138.362C233.804 132.503 243.687 123.697 244.977 114.056Z" fill="white" fill-opacity="0.15"/>
</svg>
